<svg version="1.0" preserveAspectRatio="xMidYMid meet" viewBox="51.567567567567565 106.94549751000001 452.5054054054054 490.91848857" zoomAndPan="magnify" xmlns:xlink="http://www.w3.org/1999/xlink" xmlns="http://www.w3.org/2000/svg" style="max-height: 500px" width="452.5054054054054" height="490.91848857"><defs><clipPath id="ab41849fcb"><path clip-rule="nonzero" d="M 62 63 L 652 63 L 652 580 L 62 580 Z M 62 63"/></clipPath><clipPath id="94c2c71883"><path clip-rule="nonzero" d="M 0.167969 407.777344 L 535.476562 -0.621094 L 715.117188 234.84375 L 179.804688 643.242188 Z M 0.167969 407.777344"/></clipPath><clipPath id="7be33fadbf"><path clip-rule="nonzero" d="M 401.039062 101.945312 C 474.839844 45.640625 574.878906 52.710938 624.484375 117.730469 C 674.089844 182.753906 654.480469 281.105469 580.679688 337.40625 L 313.429688 541.296875 C 239.632812 597.601562 139.59375 590.53125 89.984375 525.511719 C 40.378906 460.488281 59.992188 362.136719 133.792969 305.832031 Z M 401.039062 101.945312"/></clipPath><clipPath id="f145f7d8ed"><path clip-rule="nonzero" d="M 221 510 L 229 510 L 229 515.671875 L 221 515.671875 Z M 221 510"/></clipPath><clipPath id="a7c52969b5"><path clip-rule="nonzero" d="M 112 514 L 283 514 L 283 515.671875 L 112 515.671875 Z M 112 514"/></clipPath></defs><g clip-path="url(#ab41849fcb)"><g clip-path="url(#94c2c71883)"><g clip-path="url(#7be33fadbf)"><path fill-rule="nonzero" fill-opacity="1" d="M 0.167969 407.777344 L 534.558594 0.0820312 L 714.199219 235.542969 L 179.804688 643.242188 Z M 0.167969 407.777344" fill="#15aee6"/></g></g></g><path fill-rule="nonzero" fill-opacity="1" d="M 122.953125 513.804688 C 109.355469 499.761719 103.648438 478.515625 108.367188 459.53125 C 113.089844 440.546875 128.082031 424.457031 146.675781 418.417969 C 154.84375 415.765625 163.882812 414.792969 170.671875 409.527344 C 179.957031 402.328125 182.257812 389.382812 188.957031 379.734375 C 196.703125 368.582031 210.886719 362.28125 224.347656 364.019531 C 237.808594 365.753906 249.929688 375.445312 254.601562 388.199219 C 258.851562 399.824219 257.136719 412.890625 260.878906 424.683594 C 265.101562 438.046875 275.964844 448.566406 280.027344 461.980469 C 285.804688 481.066406 274.710938 503.683594 256.085938 510.785156" fill="#c2d6ff"/><path fill-rule="nonzero" fill-opacity="1" d="M 153.253906 416.222656 C 153.878906 414.964844 154.507812 413.710938 155.136719 412.457031 C 153.667969 410.894531 152.582031 409.097656 151.886719 407.066406 C 149.917969 401.257812 152.320312 396.195312 152.894531 395.066406 C 154.144531 392.632812 155.90625 390.648438 158.175781 389.113281 C 159.460938 388.246094 162.347656 386.296875 166.421875 386.457031 C 168.9375 386.605469 171.222656 387.410156 173.273438 388.875 C 175.023438 390.117188 176.394531 391.6875 177.382812 393.59375 C 179.328125 393.738281 181.21875 393.488281 183.058594 392.851562 C 184.902344 392.210938 186.539062 391.234375 187.976562 389.914062 C 188.128906 390.476562 188.980469 393.480469 191.941406 395.066406 C 194.660156 396.519531 198.09375 396.214844 200.765625 394.292969 C 200.011719 396.582031 200.703125 399.039062 202.402344 400.359375 C 204.554688 402.027344 208.035156 401.648438 210.042969 399.183594 C 210.601562 399.121094 214.167969 398.796875 216.753906 401.335938 C 217.828125 402.367188 218.519531 403.613281 218.828125 405.074219 C 219.09375 406.460938 218.972656 407.8125 218.457031 409.132812 C 217.332031 412 214.722656 413.171875 214.046875 413.476562 C 210.40625 415.121094 206.933594 413.695312 206.285156 413.414062 C 205.960938 414.515625 205.519531 415.570312 204.960938 416.574219 C 204.53125 417.328125 204.046875 418.042969 203.5 418.714844 L 203.5 433.007812 C 202.785156 434.445312 201.804688 435.667969 200.558594 436.679688 C 199.804688 437.289062 197 439.550781 193.125 439.058594 C 191.972656 438.917969 190.886719 438.570312 189.871094 438.011719 C 188.855469 437.453125 187.976562 436.726562 187.242188 435.832031 C 186.347656 434.691406 185.777344 433.40625 185.523438 431.980469 L 185.523438 425.828125 C 183.765625 425.480469 182.121094 424.839844 180.59375 423.90625 C 178.296875 422.507812 176.519531 420.621094 175.261719 418.246094 C 174.367188 416.488281 173.863281 414.625 173.753906 412.65625 C 172.738281 413.621094 171.585938 414.375 170.296875 414.917969 C 168.183594 415.792969 166.34375 415.792969 164.679688 415.792969 C 163.328125 415.792969 161.988281 415.664062 160.664062 415.402344 L 159.035156 418.46875 C 159.757812 419.164062 160.355469 419.953125 160.820312 420.839844 C 161.3125 421.773438 161.738281 422.585938 161.632812 423.660156 C 161.542969 424.4375 161.246094 425.121094 160.742188 425.71875 C 161.144531 426.285156 161.363281 426.914062 161.402344 427.609375 C 161.441406 428.300781 161.289062 428.949219 160.953125 429.554688 C 160.488281 430.4375 159.820312 431.113281 158.945312 431.585938 C 159.265625 432.28125 159.371094 433.007812 159.257812 433.765625 C 159 435.3125 157.695312 436.605469 155.929688 437.109375 C 156.347656 437.65625 156.542969 438.277344 156.511719 438.964844 C 156.410156 439.847656 156.003906 440.554688 155.289062 441.078125 C 153.386719 442.664062 150.445312 441.535156 150.257812 441.460938 L 142.820312 473.246094 L 184.714844 473.246094 C 185.210938 473.25 185.691406 473.324219 186.164062 473.46875 C 186.636719 473.609375 187.078125 473.820312 187.488281 474.089844 C 187.902344 474.363281 188.265625 474.6875 188.585938 475.0625 C 188.902344 475.441406 189.160156 475.855469 189.359375 476.308594 L 196.457031 505.777344 C 199.332031 505.128906 202.332031 504.535156 205.464844 504.015625 C 213.597656 502.6875 221.78125 502.019531 230.015625 502.011719 L 263.59375 495.179688 C 264.621094 497.40625 265.636719 499.726562 266.636719 502.144531 C 268.445312 506.527344 269.980469 510.757812 271.300781 514.792969 L 131.882812 514.792969 C 130.980469 510.878906 130.078125 506.964844 129.175781 503.050781 C 128.042969 503 126.949219 502.765625 125.898438 502.34375 C 122.316406 500.867188 120.695312 497.714844 120.089844 496.542969 C 118.4375 493.328125 118.472656 490.347656 118.535156 487.652344 C 118.597656 484.953125 119.054688 483.011719 119.777344 479.984375 C 121.804688 471.632812 122.820312 467.457031 123.402344 465.511719 C 123.753906 464.328125 125.363281 458.980469 128.136719 451.730469 C 130.640625 445.199219 132.882812 439.335938 136.8125 432.175781 C 139.21875 427.804688 141.890625 423.601562 144.832031 419.566406 C 145.464844 418.710938 146.238281 418.003906 147.152344 417.453125 C 148.285156 416.800781 149.503906 416.414062 150.804688 416.289062 C 151.617188 416.179688 152.433594 416.160156 153.253906 416.222656 Z M 153.253906 416.222656" fill="#ffffff"/><path fill-rule="nonzero" fill-opacity="1" d="M 148.898438 447.160156 C 148.292969 449.925781 147.640625 452.730469 146.945312 455.574219 C 145.441406 461.710938 143.816406 467.597656 142.121094 473.230469 L 184.71875 473.230469 C 185.789062 473.246094 186.757812 473.5625 187.636719 474.171875 C 188.6875 474.9375 189.371094 475.949219 189.679688 477.214844 L 196.460938 505.746094 C 203.070312 504.269531 209.746094 503.214844 216.484375 502.578125 C 221.21875 502.125 225.695312 501.910156 229.882812 501.871094 C 234.609375 501.019531 239.390625 500.117188 244.230469 499.164062 C 252.367188 497.550781 260.320312 495.863281 268.085938 494.097656 C 266.714844 491.316406 264.585938 487.050781 261.875 481.878906 C 253.804688 466.515625 249.632812 458.667969 242.945312 450.726562 C 238.285156 445.191406 235.003906 441.113281 229.082031 437.359375 C 226.085938 435.453125 222.910156 433.902344 219.5625 432.714844 C 216.214844 431.523438 212.773438 430.726562 209.246094 430.3125 C 207.597656 430.144531 205.945312 430.066406 204.289062 430.085938 L 203.148438 430.4375 C 203.261719 431.289062 203.382812 432.140625 203.5 432.996094 C 202.855469 434.296875 201.988281 435.425781 200.894531 436.378906 C 200.136719 437.039062 197.585938 439.273438 193.800781 439.0625 C 193.09375 439.027344 189.660156 438.757812 187.242188 435.816406 C 186.078125 434.382812 185.414062 432.746094 185.246094 430.910156 C 178.636719 432.160156 172.261719 434.15625 166.121094 436.902344 C 159.980469 439.648438 154.238281 443.066406 148.902344 447.160156 Z M 148.898438 447.160156" fill="#83cb75"/><path fill-rule="nonzero" fill-opacity="1" d="M 180.277344 431.949219 C 180.242188 437.914062 184.230469 443.574219 189.949219 445.367188 C 191.414062 445.816406 192.910156 446.03125 194.441406 446 C 195.972656 445.972656 197.464844 445.707031 198.910156 445.203125 C 200.320312 444.710938 201.609375 444 202.785156 443.082031 C 203.960938 442.160156 204.957031 441.074219 205.777344 439.824219 C 206.699219 438.433594 207.351562 436.921875 207.738281 435.296875 C 208.125 433.671875 208.222656 432.03125 208.03125 430.371094 C 207.9375 429.636719 206.777344 429.625 206.871094 430.371094 C 207.558594 435.820312 204.609375 441.410156 199.582031 443.707031 C 198.289062 444.285156 196.9375 444.648438 195.53125 444.792969 C 194.121094 444.9375 192.726562 444.855469 191.34375 444.550781 C 189.996094 444.246094 188.734375 443.730469 187.558594 443.007812 C 186.382812 442.285156 185.351562 441.386719 184.472656 440.320312 C 183.492188 439.148438 182.742188 437.84375 182.21875 436.40625 C 181.699219 434.964844 181.4375 433.480469 181.4375 431.953125 C 181.4375 431.792969 181.382812 431.65625 181.269531 431.539062 C 181.15625 431.425781 181.019531 431.371094 180.859375 431.371094 C 180.695312 431.371094 180.558594 431.425781 180.445312 431.539062 C 180.332031 431.65625 180.277344 431.792969 180.277344 431.953125 Z M 180.277344 431.949219" fill="#ffffff"/><path fill-rule="nonzero" fill-opacity="1" d="M 225.851562 495.460938 L 255.164062 488.289062 L 263.429688 486.261719 C 264.15625 486.085938 263.847656 484.964844 263.121094 485.144531 L 233.828125 492.316406 L 225.5625 494.339844 C 224.835938 494.515625 225.144531 495.636719 225.867188 495.460938 Z M 225.851562 495.460938" fill="#ffffff"/><path fill-rule="nonzero" fill-opacity="1" d="M 159.875 393.160156 C 158.226562 394.242188 157.023438 395.695312 156.265625 397.519531 C 155.8125 398.667969 155.585938 399.859375 155.585938 401.09375 C 155.585938 402.324219 155.8125 403.515625 156.265625 404.664062 C 156.578125 405.460938 157.75 408.3125 160.84375 409.769531 C 165.175781 411.808594 169.414062 409.253906 169.945312 408.917969 C 170.621094 408.5 174.148438 406.1875 174.625 401.75 C 174.683594 401.167969 175.035156 397.652344 172.480469 394.734375 C 171.128906 393.199219 169.453125 392.21875 167.453125 391.796875 C 163.617188 390.925781 160.558594 392.730469 159.875 393.160156 Z M 159.875 393.160156" fill="#fad745"/><path fill-rule="nonzero" fill-opacity="1" d="M 173.832031 388.71875 C 172.714844 386.058594 172.8125 382.796875 174.75 380.53125 C 175.542969 379.628906 176.488281 378.933594 177.582031 378.441406 C 178.675781 377.949219 179.820312 377.707031 181.019531 377.710938 C 182.382812 377.699219 183.65625 378.035156 184.839844 378.714844 C 184.976562 378.796875 185.125 378.816406 185.28125 378.777344 C 185.4375 378.734375 185.554688 378.644531 185.636719 378.507812 C 185.714844 378.367188 185.738281 378.222656 185.695312 378.066406 C 185.65625 377.910156 185.566406 377.792969 185.425781 377.710938 C 180.4375 374.808594 173.257812 377.644531 172.121094 383.441406 C 171.75 385.367188 171.945312 387.230469 172.710938 389.035156 C 172.757812 389.179688 172.851562 389.292969 172.984375 389.371094 C 173.121094 389.449219 173.261719 389.472656 173.414062 389.4375 C 173.566406 389.394531 173.683594 389.304688 173.761719 389.167969 C 173.839844 389.03125 173.859375 388.886719 173.820312 388.734375 Z M 173.832031 388.71875" fill="#000f66"/><path fill-rule="nonzero" fill-opacity="1" d="M 176.707031 393.441406 C 180.753906 395.414062 186.035156 394.03125 188.472656 390.210938 C 188.878906 389.574219 187.875 388.996094 187.472656 389.621094 C 185.390625 392.882812 180.753906 394.128906 177.292969 392.441406 C 176.621094 392.117188 176.035156 393.117188 176.707031 393.445312 Z M 176.707031 393.441406" fill="#000f66"/><path fill-rule="nonzero" fill-opacity="1" d="M 187.125 390.40625 C 187.269531 391.621094 187.667969 392.75 188.3125 393.789062 C 188.960938 394.828125 189.796875 395.679688 190.824219 396.347656 C 191.863281 397 192.992188 397.386719 194.210938 397.511719 C 195.429688 397.636719 196.617188 397.480469 197.761719 397.050781 C 199.109375 396.566406 200.246094 395.777344 201.171875 394.6875 C 201.652344 394.121094 200.820312 393.277344 200.351562 393.867188 C 199.929688 394.386719 199.441406 394.839844 198.890625 395.214844 C 198.335938 395.59375 197.738281 395.882812 197.101562 396.085938 C 196.460938 396.289062 195.808594 396.390625 195.136719 396.402344 C 194.46875 396.410156 193.8125 396.320312 193.167969 396.136719 C 192.523438 395.949219 191.917969 395.675781 191.355469 395.3125 C 190.792969 394.949219 190.296875 394.511719 189.859375 394 C 189.425781 393.492188 189.074219 392.929688 188.808594 392.3125 C 188.539062 391.699219 188.367188 391.058594 188.285156 390.394531 C 188.199219 389.660156 187.035156 389.648438 187.125 390.394531 Z M 187.125 390.40625" fill="#000f66"/><path fill-rule="nonzero" fill-opacity="1" d="M 199.953125 394.417969 C 199.40625 395.320312 199.105469 396.296875 199.046875 397.351562 C 198.984375 398.402344 199.175781 399.410156 199.617188 400.367188 C 200.074219 401.304688 200.726562 402.074219 201.582031 402.671875 C 202.433594 403.273438 203.378906 403.625 204.417969 403.734375 C 205.601562 403.878906 206.730469 403.691406 207.804688 403.175781 C 208.476562 402.855469 207.890625 401.855469 207.214844 402.171875 C 206.730469 402.410156 206.21875 402.5625 205.683594 402.632812 C 205.144531 402.699219 204.613281 402.683594 204.082031 402.574219 C 203.550781 402.46875 203.050781 402.277344 202.582031 402.007812 C 202.113281 401.734375 201.703125 401.394531 201.347656 400.988281 C 200.992188 400.578125 200.707031 400.125 200.503906 399.625 C 200.296875 399.125 200.175781 398.605469 200.136719 398.0625 C 200.101562 397.523438 200.15625 396.992188 200.292969 396.46875 C 200.433594 395.945312 200.652344 395.457031 200.953125 395.007812 C 201.355469 394.371094 200.351562 393.789062 199.953125 394.417969 Z M 199.953125 394.417969" fill="#000f66"/><path fill-rule="nonzero" fill-opacity="1" d="M 208.15625 402.738281 C 208.699219 401.964844 209.394531 401.375 210.238281 400.960938 C 211.085938 400.550781 211.980469 400.367188 212.917969 400.414062 C 213.894531 400.46875 214.792969 400.757812 215.617188 401.28125 C 216.4375 401.800781 217.082031 402.492188 217.546875 403.351562 C 218.042969 404.214844 218.324219 405.148438 218.382812 406.144531 C 218.4375 407.144531 218.269531 408.101562 217.878906 409.019531 C 217.46875 409.953125 216.894531 410.765625 216.152344 411.464844 C 215.410156 412.160156 214.558594 412.679688 213.597656 413.023438 C 212.371094 413.429688 211.117188 413.550781 209.835938 413.390625 C 208.554688 413.230469 207.371094 412.804688 206.28125 412.113281 C 205.644531 411.71875 205.058594 412.722656 205.695312 413.117188 C 206.808594 413.8125 208.011719 414.265625 209.304688 414.484375 C 210.597656 414.699219 211.882812 414.660156 213.164062 414.367188 C 214.332031 414.070312 215.394531 413.554688 216.347656 412.8125 C 217.300781 412.070312 218.0625 411.167969 218.632812 410.105469 C 219.199219 409.054688 219.5 407.929688 219.535156 406.734375 C 219.570312 405.539062 219.335938 404.398438 218.832031 403.316406 C 218.359375 402.253906 217.664062 401.367188 216.746094 400.65625 C 215.828125 399.949219 214.792969 399.5 213.648438 399.3125 C 213.03125 399.222656 212.410156 399.214844 211.789062 399.296875 C 211.171875 399.378906 210.574219 399.546875 210 399.792969 C 209.425781 400.042969 208.894531 400.367188 208.414062 400.765625 C 207.929688 401.160156 207.507812 401.617188 207.152344 402.132812 C 206.742188 402.753906 207.746094 403.339844 208.15625 402.714844 Z M 208.15625 402.738281" fill="#000f66"/><path fill-rule="nonzero" fill-opacity="1" d="M 209.601562 408.382812 C 209.601562 408.453125 209.621094 408.285156 209.625 408.273438 L 209.667969 408.074219 C 209.703125 407.949219 209.742188 407.816406 209.78125 407.691406 C 209.867188 407.464844 209.96875 407.25 210.097656 407.046875 C 210.355469 406.613281 210.683594 406.238281 211.078125 405.925781 C 211.871094 405.273438 212.777344 404.980469 213.800781 405.042969 C 213.960938 405.042969 214.097656 404.984375 214.210938 404.871094 C 214.324219 404.757812 214.382812 404.621094 214.382812 404.460938 C 214.382812 404.300781 214.324219 404.164062 214.210938 404.050781 C 214.097656 403.933594 213.960938 403.878906 213.800781 403.878906 C 213.15625 403.859375 212.527344 403.953125 211.914062 404.164062 C 211.304688 404.375 210.753906 404.6875 210.257812 405.105469 C 209.765625 405.519531 209.359375 406.011719 209.046875 406.578125 C 208.734375 407.140625 208.53125 407.746094 208.441406 408.382812 C 208.398438 408.695312 208.738281 408.964844 209.023438 408.964844 C 209.179688 408.960938 209.316406 408.902344 209.429688 408.792969 C 209.542969 408.679688 209.601562 408.542969 209.601562 408.382812 Z M 209.601562 408.382812" fill="#000f66"/><path fill-rule="nonzero" fill-opacity="1" d="M 173.148438 412.65625 C 173.363281 418.410156 177.324219 423.492188 182.625 425.542969 C 188.359375 427.761719 194.972656 426.472656 199.84375 422.863281 C 202.519531 420.855469 204.664062 418.390625 206.285156 415.464844 C 206.636719 414.808594 205.644531 414.226562 205.28125 414.875 C 202.613281 419.640625 198.238281 423.566406 192.878906 424.929688 C 187.398438 426.339844 181.316406 424.929688 177.539062 420.589844 C 176.566406 419.488281 175.800781 418.253906 175.25 416.890625 C 174.695312 415.527344 174.382812 414.113281 174.308594 412.644531 C 174.28125 411.898438 173.121094 411.894531 173.148438 412.644531 Z M 173.148438 412.65625" fill="#000f66"/><path fill-rule="nonzero" fill-opacity="1" d="M 202.90625 418.710938 L 202.90625 433 C 202.90625 433.164062 202.964844 433.300781 203.078125 433.414062 C 203.191406 433.527344 203.328125 433.582031 203.488281 433.582031 C 203.648438 433.582031 203.785156 433.527344 203.898438 433.414062 C 204.011719 433.300781 204.070312 433.164062 204.070312 433 L 204.070312 418.710938 C 204.070312 418.550781 204.011719 418.410156 203.898438 418.296875 C 203.785156 418.183594 203.648438 418.128906 203.488281 418.128906 C 203.328125 418.128906 203.191406 418.183594 203.078125 418.296875 C 202.964844 418.410156 202.90625 418.550781 202.90625 418.710938 Z M 202.90625 418.710938" fill="#000f66"/><path fill-rule="nonzero" fill-opacity="1" d="M 202.988281 432.710938 C 201.308594 435.972656 198.089844 438.347656 194.363281 438.484375 C 192.015625 438.5625 189.785156 437.996094 188.207031 436.15625 C 186.917969 434.648438 186.253906 432.683594 185.800781 430.789062 C 185.625 430.058594 184.503906 430.371094 184.679688 431.097656 C 185.464844 434.367188 187.015625 437.757812 190.335938 439.0625 C 193.179688 440.1875 196.730469 439.742188 199.332031 438.234375 C 201.363281 437.039062 202.914062 435.394531 203.988281 433.300781 C 204.339844 432.640625 203.328125 432.050781 202.988281 432.714844 Z M 202.988281 432.710938" fill="#000f66"/><path fill-rule="nonzero" fill-opacity="1" d="M 204.28125 430.667969 C 208.527344 430.632812 212.691406 431.203125 216.773438 432.371094 C 220.859375 433.539062 224.695312 435.257812 228.285156 437.527344 C 230.320312 438.816406 232.238281 440.265625 234.03125 441.878906 C 234.582031 442.378906 235.40625 441.558594 234.851562 441.058594 C 231.589844 438.140625 227.980469 435.742188 224.027344 433.867188 C 220.074219 431.992188 215.9375 430.71875 211.613281 430.039062 C 209.183594 429.660156 206.738281 429.480469 204.28125 429.503906 C 203.535156 429.503906 203.535156 430.671875 204.28125 430.667969 Z M 204.28125 430.667969" fill="#000f66"/><path fill-rule="nonzero" fill-opacity="1" d="M 242.433594 451.003906 C 246.167969 456.316406 249.679688 461.785156 253.015625 467.359375 C 256.417969 473.027344 259.648438 478.792969 262.699219 484.65625 C 264.378906 487.871094 266.007812 491.113281 267.589844 494.378906 C 267.914062 495.050781 268.914062 494.464844 268.589844 493.792969 C 265.757812 487.945312 262.769531 482.175781 259.625 476.484375 C 256.421875 470.703125 253.050781 465.023438 249.507812 459.449219 C 247.550781 456.398438 245.535156 453.386719 243.453125 450.417969 C 243.023438 449.808594 242.019531 450.390625 242.449219 451.003906 Z M 242.433594 451.003906" fill="#000f66"/><path fill-rule="nonzero" fill-opacity="1" d="M 213.558594 459.90625 C 215.332031 471.675781 218.941406 482.855469 224.378906 493.441406 C 225.90625 496.414062 227.570312 499.316406 229.367188 502.140625 C 229.769531 502.765625 230.777344 502.1875 230.371094 501.550781 C 224.011719 491.578125 219.421875 480.84375 216.601562 469.355469 C 215.8125 466.132812 215.167969 462.882812 214.675781 459.59375 C 214.5625 458.859375 213.449219 459.171875 213.558594 459.90625 Z M 213.558594 459.90625" fill="#000f66"/><path fill-rule="nonzero" fill-opacity="1" d="M 230.113281 502.734375 L 259.832031 496.425781 L 268.226562 494.644531 C 268.957031 494.488281 268.648438 493.367188 267.917969 493.523438 L 238.203125 499.832031 L 229.804688 501.617188 C 229.074219 501.769531 229.382812 502.890625 230.113281 502.734375 Z M 230.113281 502.734375" fill="#000f66"/><path fill-rule="nonzero" fill-opacity="1" d="M 149.191406 447.660156 C 154.507812 443.578125 160.222656 440.167969 166.339844 437.429688 C 172.457031 434.691406 178.808594 432.699219 185.394531 431.457031 C 186.128906 431.3125 185.816406 430.199219 185.085938 430.335938 C 174.65625 432.3125 164.914062 436.082031 155.863281 441.636719 C 153.355469 443.179688 150.929688 444.851562 148.589844 446.644531 C 148.003906 447.09375 148.589844 448.105469 149.175781 447.644531 Z M 149.191406 447.660156" fill="#000f66"/><path fill-rule="nonzero" fill-opacity="1" d="M 185.921875 378.144531 C 186.203125 377.351562 186.570312 376.605469 187.03125 375.90625 C 187.488281 375.203125 188.023438 374.566406 188.636719 373.996094 C 189.25 373.421875 189.921875 372.933594 190.65625 372.523438 C 191.386719 372.117188 192.15625 371.800781 192.964844 371.578125 C 193.765625 371.371094 194.582031 371.265625 195.40625 371.265625 C 196.234375 371.261719 197.050781 371.363281 197.851562 371.566406 C 198.652344 371.769531 199.417969 372.066406 200.144531 372.464844 C 200.871094 372.859375 201.539062 373.339844 202.144531 373.902344 C 203.582031 375.1875 204.566406 376.757812 205.101562 378.613281 C 205.144531 378.765625 205.238281 378.878906 205.375 378.957031 C 205.515625 379.035156 205.660156 379.050781 205.8125 379.007812 C 205.964844 378.964844 206.082031 378.875 206.160156 378.738281 C 206.238281 378.601562 206.261719 378.457031 206.21875 378.304688 C 205.957031 377.414062 205.589844 376.566406 205.125 375.765625 C 204.65625 374.964844 204.101562 374.230469 203.460938 373.5625 C 202.816406 372.894531 202.101562 372.308594 201.320312 371.8125 C 200.535156 371.316406 199.707031 370.921875 198.828125 370.625 C 195.207031 369.398438 191.253906 370.332031 188.335938 372.738281 C 186.671875 374.101562 185.496094 375.804688 184.816406 377.847656 C 184.578125 378.554688 185.703125 378.867188 185.933594 378.160156 Z M 185.921875 378.144531" fill="#000f66"/><path fill-rule="nonzero" fill-opacity="1" d="M 205.96875 378.957031 C 208.433594 377.261719 211.863281 376.898438 214.691406 377.8125 C 216.160156 378.261719 217.324219 379.125 218.179688 380.402344 C 219.082031 381.796875 219.53125 383.320312 219.523438 384.980469 C 219.546875 386.898438 218.957031 388.601562 217.765625 390.097656 C 217.292969 390.671875 218.117188 391.507812 218.585938 390.917969 C 219.164062 390.191406 219.625 389.398438 219.972656 388.539062 C 220.320312 387.679688 220.539062 386.785156 220.628906 385.863281 C 220.71875 384.9375 220.671875 384.019531 220.496094 383.109375 C 220.320312 382.199219 220.015625 381.332031 219.589844 380.507812 C 217.890625 377.285156 214.347656 375.984375 210.851562 376.195312 C 208.863281 376.28125 207.039062 376.867188 205.375 377.957031 C 204.765625 378.378906 205.34375 379.367188 205.964844 378.957031 Z M 205.96875 378.957031" fill="#000f66"/><path fill-rule="nonzero" fill-opacity="1" d="M 217.75 390.875 C 218.382812 391.15625 218.972656 391.515625 219.511719 391.953125 C 220.050781 392.390625 220.523438 392.894531 220.929688 393.457031 C 221.335938 394.019531 221.660156 394.625 221.90625 395.273438 C 222.152344 395.925781 222.308594 396.59375 222.375 397.285156 C 222.445312 397.976562 222.421875 398.664062 222.308594 399.351562 C 222.191406 400.035156 221.988281 400.695312 221.699219 401.324219 C 221.410156 401.957031 221.046875 402.539062 220.601562 403.074219 C 220.15625 403.605469 219.652344 404.074219 219.085938 404.472656 C 218.484375 404.902344 219.058594 405.910156 219.671875 405.476562 C 220.695312 404.75 221.539062 403.851562 222.195312 402.78125 C 222.855469 401.710938 223.277344 400.554688 223.464844 399.3125 C 223.636719 398.082031 223.558594 396.867188 223.230469 395.667969 C 222.898438 394.46875 222.34375 393.382812 221.5625 392.414062 C 220.6875 391.3125 219.613281 390.464844 218.339844 389.875 C 217.664062 389.5625 217.074219 390.578125 217.753906 390.875 Z M 217.75 390.875" fill="#000f66"/><path fill-rule="nonzero" fill-opacity="1" d="M 204.109375 423.035156 L 212.558594 414.554688 C 212.660156 414.441406 212.710938 414.308594 212.707031 414.152344 C 212.703125 414 212.644531 413.867188 212.535156 413.757812 C 212.425781 413.648438 212.292969 413.589844 212.140625 413.585938 C 211.988281 413.582031 211.851562 413.632812 211.738281 413.734375 L 203.289062 422.214844 C 203.183594 422.328125 203.136719 422.464844 203.140625 422.617188 C 203.144531 422.773438 203.199219 422.90625 203.308594 423.015625 C 203.417969 423.121094 203.550781 423.179688 203.703125 423.183594 C 203.859375 423.1875 203.992188 423.140625 204.109375 423.035156 Z M 204.109375 423.035156" fill="#000f66"/><path fill-rule="nonzero" fill-opacity="1" d="M 131.378906 509.578125 C 129.59375 501.59375 128.15625 493.53125 127.066406 485.390625 C 126.761719 483.101562 126.484375 480.8125 126.234375 478.523438 C 126.152344 477.789062 124.992188 477.78125 125.074219 478.523438 C 125.96875 486.742188 127.214844 494.910156 128.816406 503.023438 C 129.269531 505.316406 129.753906 507.605469 130.257812 509.886719 C 130.421875 510.617188 131.539062 510.304688 131.378906 509.578125 Z M 131.378906 509.578125" fill="#000f66"/><path fill-rule="nonzero" fill-opacity="1" d="M 126.3125 478.523438 C 126.257812 477.980469 126.300781 477.445312 126.449219 476.921875 C 126.59375 476.394531 126.828125 475.914062 127.152344 475.476562 C 127.480469 475.039062 127.875 474.675781 128.335938 474.386719 C 128.796875 474.097656 129.296875 473.902344 129.832031 473.804688 C 129.984375 473.761719 130.101562 473.671875 130.179688 473.53125 C 130.257812 473.394531 130.277344 473.25 130.238281 473.097656 C 130.191406 472.949219 130.101562 472.835938 129.964844 472.753906 C 129.832031 472.675781 129.6875 472.65625 129.535156 472.691406 C 126.886719 473.128906 124.828125 475.859375 125.148438 478.53125 C 125.15625 478.691406 125.214844 478.824219 125.332031 478.9375 C 125.449219 479.046875 125.585938 479.105469 125.746094 479.105469 C 125.90625 479.105469 126.042969 479.046875 126.15625 478.933594 C 126.269531 478.820312 126.324219 478.683594 126.328125 478.523438 Z M 126.3125 478.523438" fill="#000f66"/><path fill-rule="nonzero" fill-opacity="1" d="M 129.6875 473.8125 L 184.710938 473.8125 C 184.871094 473.8125 185.003906 473.753906 185.117188 473.640625 C 185.230469 473.527344 185.289062 473.390625 185.289062 473.230469 C 185.289062 473.070312 185.230469 472.933594 185.117188 472.820312 C 185.003906 472.707031 184.871094 472.652344 184.710938 472.652344 L 129.6875 472.652344 C 129.527344 472.652344 129.390625 472.707031 129.28125 472.820312 C 129.167969 472.933594 129.109375 473.070312 129.109375 473.230469 C 129.109375 473.390625 129.167969 473.527344 129.28125 473.640625 C 129.390625 473.753906 129.527344 473.8125 129.6875 473.8125 Z M 129.6875 473.8125" fill="#000f66"/><path fill-rule="nonzero" fill-opacity="1" d="M 184.695312 473.949219 C 185.207031 473.917969 185.710938 473.976562 186.199219 474.128906 C 186.691406 474.28125 187.140625 474.515625 187.546875 474.828125 C 187.953125 475.144531 188.292969 475.519531 188.5625 475.957031 C 188.832031 476.394531 189.015625 476.863281 189.117188 477.367188 C 189.160156 477.519531 189.25 477.632812 189.386719 477.710938 C 189.523438 477.789062 189.667969 477.808594 189.820312 477.773438 C 189.96875 477.726562 190.085938 477.636719 190.164062 477.5 C 190.242188 477.363281 190.261719 477.222656 190.226562 477.070312 C 190.09375 476.441406 189.855469 475.859375 189.515625 475.316406 C 189.171875 474.773438 188.75 474.308594 188.242188 473.914062 C 187.734375 473.523438 187.175781 473.234375 186.566406 473.039062 C 185.957031 472.847656 185.332031 472.765625 184.691406 472.796875 C 184.535156 472.800781 184.398438 472.859375 184.285156 472.972656 C 184.175781 473.082031 184.117188 473.21875 184.113281 473.375 C 184.113281 473.535156 184.171875 473.671875 184.285156 473.785156 C 184.394531 473.898438 184.53125 473.957031 184.691406 473.957031 Z M 184.695312 473.949219" fill="#000f66"/><path fill-rule="nonzero" fill-opacity="1" d="M 189.117188 477.105469 L 195.242188 503.171875 L 196.964844 510.484375 C 197.132812 511.210938 198.253906 510.90625 198.082031 510.175781 L 191.957031 484.105469 L 190.238281 476.792969 C 190.066406 476.066406 188.949219 476.375 189.117188 477.105469 Z M 189.117188 477.105469" fill="#000f66"/><path fill-rule="nonzero" fill-opacity="1" d="M 198.195312 511.394531 L 222.265625 511.394531 C 222.417969 511.382812 222.546875 511.320312 222.648438 511.210938 C 222.75 511.097656 222.804688 510.96875 222.804688 510.816406 C 222.804688 510.664062 222.75 510.53125 222.648438 510.421875 C 222.546875 510.308594 222.417969 510.246094 222.265625 510.234375 L 198.195312 510.234375 C 198.046875 510.246094 197.917969 510.308594 197.816406 510.421875 C 197.710938 510.53125 197.660156 510.664062 197.660156 510.816406 C 197.660156 510.96875 197.710938 511.097656 197.816406 511.210938 C 197.917969 511.320312 198.046875 511.382812 198.195312 511.394531 Z M 198.195312 511.394531" fill="#000f66"/><g clip-path="url(#f145f7d8ed)"><path fill-rule="nonzero" fill-opacity="1" d="M 222.535156 511.402344 C 223.089844 511.351562 223.636719 511.402344 224.175781 511.550781 C 224.714844 511.699219 225.210938 511.933594 225.667969 512.257812 C 226.121094 512.582031 226.503906 512.976562 226.820312 513.4375 C 227.132812 513.902344 227.355469 514.402344 227.492188 514.945312 C 227.65625 515.675781 228.777344 515.363281 228.613281 514.636719 C 228.441406 513.96875 228.167969 513.351562 227.78125 512.785156 C 227.394531 512.214844 226.921875 511.730469 226.367188 511.328125 C 225.808594 510.925781 225.199219 510.628906 224.539062 510.445312 C 223.878906 510.257812 223.207031 510.1875 222.519531 510.238281 C 222.363281 510.242188 222.226562 510.300781 222.113281 510.414062 C 222 510.527344 221.945312 510.660156 221.941406 510.820312 C 221.941406 510.980469 221.996094 511.117188 222.109375 511.230469 C 222.222656 511.34375 222.359375 511.402344 222.519531 511.402344 Z M 222.535156 511.402344" fill="#000f66"/></g><path fill-rule="nonzero" fill-opacity="1" d="M 153.207031 499.226562 C 153.46875 501.886719 155.578125 504.054688 158.136719 504.65625 C 160.691406 505.257812 163.457031 504.160156 165.101562 502.140625 C 165.515625 501.640625 165.851562 501.09375 166.109375 500.5 C 166.367188 499.90625 166.539062 499.285156 166.621094 498.644531 C 166.707031 498 166.699219 497.359375 166.597656 496.71875 C 166.5 496.078125 166.316406 495.464844 166.042969 494.875 C 165.785156 494.289062 165.457031 493.746094 165.050781 493.246094 C 164.648438 492.75 164.183594 492.316406 163.660156 491.945312 C 163.136719 491.574219 162.574219 491.28125 161.972656 491.0625 C 161.367188 490.847656 160.746094 490.714844 160.105469 490.667969 C 159.398438 490.636719 158.699219 490.707031 158.007812 490.878906 C 157.320312 491.050781 156.667969 491.320312 156.054688 491.679688 C 155.445312 492.042969 154.894531 492.480469 154.410156 493 C 153.925781 493.519531 153.523438 494.097656 153.207031 494.734375 C 152.890625 495.410156 153.890625 496 154.210938 495.324219 C 154.683594 494.347656 155.363281 493.546875 156.253906 492.929688 C 157.144531 492.308594 158.128906 491.949219 159.210938 491.847656 C 159.734375 491.8125 160.257812 491.851562 160.773438 491.957031 C 161.289062 492.0625 161.78125 492.234375 162.253906 492.472656 C 162.722656 492.710938 163.152344 493.003906 163.546875 493.355469 C 163.9375 493.710938 164.277344 494.105469 164.5625 494.550781 C 164.847656 494.992188 165.070312 495.464844 165.230469 495.96875 C 165.390625 496.46875 165.484375 496.984375 165.507812 497.511719 C 165.53125 498.039062 165.484375 498.558594 165.367188 499.074219 C 165.25 499.589844 165.070312 500.078125 164.824219 500.542969 C 164.558594 501.011719 164.234375 501.4375 163.859375 501.820312 C 163.480469 502.203125 163.058594 502.53125 162.597656 502.804688 C 162.132812 503.078125 161.644531 503.289062 161.125 503.4375 C 160.609375 503.582031 160.082031 503.660156 159.542969 503.667969 C 157.109375 503.632812 154.613281 501.730469 154.386719 499.226562 C 154.3125 498.492188 153.148438 498.484375 153.222656 499.226562 Z M 153.207031 499.226562" fill="#000f66"/><path fill-rule="nonzero" fill-opacity="1" d="M 149.515625 442.113281 L 143.941406 465.785156 L 142.347656 472.546875 C 142.175781 473.273438 143.296875 473.585938 143.46875 472.855469 L 149.046875 449.183594 L 150.636719 442.425781 C 150.808594 441.695312 149.691406 441.386719 149.515625 442.113281 Z M 149.515625 442.113281" fill="#000f66"/><path fill-rule="nonzero" fill-opacity="1" d="M 148.320312 441.328125 C 149.726562 441.917969 151.21875 442.503906 152.777344 442.476562 C 153.402344 442.476562 154.007812 442.355469 154.585938 442.117188 C 155.164062 441.875 155.671875 441.53125 156.113281 441.085938 C 156.558594 440.636719 156.847656 440.105469 156.984375 439.488281 C 157.117188 438.875 157.078125 438.269531 156.859375 437.675781 C 156.359375 436.355469 155.238281 435.472656 153.96875 434.933594 C 152.359375 434.226562 150.59375 433.875 148.910156 433.410156 C 148.761719 433.375 148.617188 433.398438 148.484375 433.480469 C 148.351562 433.558594 148.261719 433.671875 148.222656 433.824219 C 148.179688 433.972656 148.199219 434.117188 148.273438 434.253906 C 148.347656 434.390625 148.457031 434.484375 148.605469 434.53125 C 149.898438 434.882812 151.199219 435.234375 152.476562 435.621094 C 153.578125 435.976562 154.742188 436.441406 155.421875 437.421875 C 155.726562 437.8125 155.882812 438.25 155.886719 438.746094 C 155.894531 439.238281 155.75 439.683594 155.453125 440.078125 C 154.792969 440.871094 153.945312 441.28125 152.914062 441.3125 C 151.414062 441.378906 149.980469 440.773438 148.621094 440.210938 C 148.46875 440.171875 148.324219 440.191406 148.1875 440.269531 C 148.050781 440.347656 147.960938 440.464844 147.917969 440.613281 C 147.882812 440.765625 147.902344 440.910156 147.980469 441.046875 C 148.058594 441.183594 148.175781 441.273438 148.324219 441.320312 Z M 148.320312 441.328125" fill="#000f66"/><path fill-rule="nonzero" fill-opacity="1" d="M 158.542969 435.878906 C 160.5625 434.394531 160.050781 431.355469 158.339844 429.84375 C 157.265625 428.976562 156.058594 428.382812 154.714844 428.0625 C 153.140625 427.617188 151.542969 427.257812 149.949219 426.859375 C 149.246094 426.679688 148.917969 427.796875 149.644531 427.976562 C 151.011719 428.332031 152.386719 428.65625 153.757812 429.007812 C 154.910156 429.25 155.996094 429.675781 157.011719 430.28125 C 157.886719 430.820312 158.429688 431.589844 158.640625 432.597656 C 158.804688 433.394531 158.640625 434.359375 157.960938 434.875 C 157.363281 435.3125 157.941406 436.324219 158.542969 435.878906 Z M 158.542969 435.878906" fill="#000f66"/><path fill-rule="nonzero" fill-opacity="1" d="M 160.953125 430.371094 C 161.851562 429.574219 162.089844 428.355469 161.878906 427.199219 C 161.613281 425.972656 160.957031 425.007812 159.914062 424.3125 C 158.828125 423.523438 157.523438 423.09375 156.261719 422.671875 L 151.507812 421.066406 C 150.804688 420.828125 150.496094 421.949219 151.199219 422.1875 L 155.191406 423.535156 C 156.363281 423.875 157.496094 424.3125 158.589844 424.851562 C 159.484375 425.339844 160.3125 426.03125 160.636719 427.03125 C 160.921875 427.910156 160.855469 428.898438 160.132812 429.539062 C 159.570312 430.035156 160.394531 430.855469 160.953125 430.359375 Z M 160.953125 430.371094" fill="#000f66"/><path fill-rule="nonzero" fill-opacity="1" d="M 161.125 426.121094 C 162.738281 424.488281 162.363281 421.855469 161.019531 420.183594 C 160.214844 419.246094 159.261719 418.507812 158.15625 417.960938 C 156.996094 417.347656 155.796875 416.828125 154.558594 416.402344 C 151.980469 415.519531 149.296875 415.449219 146.929688 416.929688 C 144.816406 418.25 143.59375 420.292969 142.277344 422.316406 C 138.316406 428.414062 134.535156 434.5625 131.628906 441.253906 C 129.589844 445.972656 127.859375 450.8125 126.097656 455.652344 C 125.847656 456.359375 126.96875 456.660156 127.21875 455.960938 C 129.796875 448.726562 132.414062 441.457031 136.070312 434.6875 C 137.714844 431.695312 139.476562 428.804688 141.316406 425.945312 C 142.488281 424.117188 143.617188 422.242188 144.875 420.472656 C 146.195312 418.613281 148.246094 417.023438 150.59375 416.902344 C 152.0625 416.882812 153.46875 417.160156 154.820312 417.734375 C 156.113281 418.199219 157.339844 418.796875 158.507812 419.519531 C 159.53125 420.175781 160.472656 421.066406 160.84375 422.257812 C 161.167969 423.3125 161.089844 424.492188 160.292969 425.300781 C 159.769531 425.832031 160.589844 426.65625 161.113281 426.121094 Z M 161.125 426.121094" fill="#000f66"/><path fill-rule="nonzero" fill-opacity="1" d="M 122.605469 465.871094 L 120.242188 475.597656 C 119.484375 478.722656 118.65625 481.851562 118.214844 485.046875 C 117.800781 488.074219 117.714844 491.234375 118.566406 494.207031 C 119.234375 496.578125 120.425781 498.648438 122.144531 500.417969 C 123.0625 501.386719 124.125 502.148438 125.339844 502.703125 C 126.550781 503.257812 127.824219 503.566406 129.15625 503.625 C 129.902344 503.644531 129.902344 502.484375 129.15625 502.464844 C 124.511719 502.347656 120.984375 498.28125 119.734375 494.078125 C 118.007812 488.304688 119.855469 482.097656 121.226562 476.460938 L 123.722656 466.175781 C 123.902344 465.449219 122.78125 465.140625 122.605469 465.871094 Z M 122.605469 465.871094" fill="#000f66"/><path fill-rule="nonzero" fill-opacity="1" d="M 158.320312 472.703125 C 159.15625 465.804688 160.429688 458.984375 162.132812 452.246094 C 162.316406 451.542969 161.195312 451.214844 161.011719 451.941406 C 159.289062 458.78125 158.003906 465.703125 157.15625 472.703125 C 157.070312 473.445312 158.230469 473.4375 158.320312 472.703125 Z M 158.320312 472.703125" fill="#000f66"/><path fill-rule="nonzero" fill-opacity="1" d="M 203.808594 505.058594 C 210.566406 503.925781 217.34375 502.792969 224.199219 502.554688 C 226.136719 502.488281 228.074219 502.496094 230.007812 502.585938 C 230.753906 502.625 230.753906 501.464844 230.007812 501.429688 C 223.082031 501.09375 216.175781 501.910156 209.347656 502.980469 C 207.394531 503.285156 205.449219 503.609375 203.503906 503.9375 C 202.765625 504.058594 203.078125 505.179688 203.808594 505.058594 Z M 203.808594 505.058594" fill="#000f66"/><path fill-rule="nonzero" fill-opacity="1" d="M 263.085938 495.484375 C 265.410156 500.464844 267.453125 505.554688 269.214844 510.757812 C 269.453125 511.460938 270.574219 511.160156 270.335938 510.449219 C 268.539062 505.148438 266.457031 499.964844 264.085938 494.898438 C 263.773438 494.222656 262.769531 494.8125 263.085938 495.484375 Z M 263.085938 495.484375" fill="#000f66"/><g clip-path="url(#a7c52969b5)"><path fill-rule="nonzero" fill-opacity="1" d="M 113.554688 515.371094 L 281.519531 515.371094 C 281.679688 515.371094 281.816406 515.316406 281.929688 515.203125 C 282.042969 515.089844 282.101562 514.953125 282.101562 514.789062 C 282.101562 514.628906 282.042969 514.492188 281.929688 514.378906 C 281.816406 514.265625 281.679688 514.210938 281.519531 514.210938 L 113.554688 514.210938 C 113.394531 514.210938 113.257812 514.265625 113.144531 514.378906 C 113.03125 514.492188 112.972656 514.628906 112.972656 514.789062 C 112.972656 514.953125 113.03125 515.089844 113.144531 515.203125 C 113.257812 515.316406 113.394531 515.371094 113.554688 515.371094 Z M 113.554688 515.371094" fill="#000f66"/></g><path fill-rule="nonzero" fill-opacity="1" d="M 184.710938 405.421875 C 183.75 406.433594 182.699219 407.605469 182.648438 409.078125 C 182.609375 410.277344 183.3125 411.605469 184.558594 411.863281 C 184.710938 411.898438 184.855469 411.878906 184.988281 411.800781 C 185.125 411.722656 185.214844 411.609375 185.261719 411.460938 C 185.300781 411.308594 185.28125 411.164062 185.203125 411.027344 C 185.125 410.890625 185.007812 410.796875 184.855469 410.753906 C 184.472656 410.679688 184.195312 410.464844 184.03125 410.109375 C 183.832031 409.746094 183.757812 409.359375 183.808594 408.949219 C 183.914062 407.925781 184.816406 406.996094 185.519531 406.253906 C 186.03125 405.710938 185.210938 404.886719 184.699219 405.433594 Z M 184.710938 405.421875" fill="#000f66"/><path fill-rule="nonzero" fill-opacity="1" d="M 183 415.652344 C 183.417969 416.019531 183.871094 416.332031 184.359375 416.597656 C 184.851562 416.859375 185.363281 417.066406 185.902344 417.210938 C 186.4375 417.359375 186.984375 417.445312 187.539062 417.46875 C 188.09375 417.492188 188.644531 417.449219 189.191406 417.347656 C 189.738281 417.246094 190.265625 417.085938 190.777344 416.863281 C 191.289062 416.644531 191.765625 416.367188 192.214844 416.039062 C 192.664062 415.707031 193.066406 415.332031 193.429688 414.910156 C 193.792969 414.488281 194.105469 414.03125 194.363281 413.539062 C 194.714844 412.878906 193.714844 412.292969 193.363281 412.953125 C 192.929688 413.765625 192.351562 414.457031 191.621094 415.019531 C 190.890625 415.582031 190.078125 415.964844 189.179688 416.175781 C 188.234375 416.375 187.292969 416.355469 186.351562 416.121094 C 185.414062 415.882812 184.578125 415.453125 183.835938 414.832031 C 183.269531 414.351562 182.429688 415.183594 183.015625 415.652344 Z M 183 415.652344" fill="#000f66"/><path fill-rule="nonzero" fill-opacity="1" d="M 192.726562 411.382812 C 192.640625 411.890625 192.710938 412.378906 192.929688 412.84375 C 193.109375 413.230469 193.363281 413.554688 193.699219 413.816406 C 194.050781 414.125 194.457031 414.324219 194.914062 414.417969 C 195.375 414.507812 195.828125 414.476562 196.269531 414.324219 C 196.421875 414.277344 196.539062 414.1875 196.621094 414.054688 C 196.703125 413.914062 196.722656 413.765625 196.679688 413.609375 C 196.636719 413.457031 196.546875 413.34375 196.410156 413.261719 C 196.273438 413.183594 196.128906 413.164062 195.976562 413.203125 C 195.898438 413.234375 195.816406 413.261719 195.734375 413.285156 C 195.6875 413.289062 195.640625 413.296875 195.59375 413.3125 L 195.679688 413.3125 L 195.609375 413.3125 C 195.527344 413.316406 195.445312 413.316406 195.363281 413.3125 C 195.339844 413.3125 195.191406 413.292969 195.296875 413.3125 C 195.402344 413.332031 195.253906 413.3125 195.230469 413.3125 C 195.152344 413.296875 195.070312 413.277344 194.992188 413.25 L 194.890625 413.214844 L 194.929688 413.230469 L 194.863281 413.199219 C 194.792969 413.164062 194.722656 413.128906 194.65625 413.085938 L 194.550781 413.015625 C 194.550781 413.015625 194.410156 412.917969 194.488281 412.976562 C 194.570312 413.039062 194.449219 412.941406 194.4375 412.933594 L 194.355469 412.859375 C 194.292969 412.796875 194.234375 412.734375 194.179688 412.671875 L 194.132812 412.613281 L 194.160156 412.648438 C 194.140625 412.617188 194.121094 412.585938 194.097656 412.558594 C 194.054688 412.488281 194.011719 412.414062 193.976562 412.339844 L 193.945312 412.273438 L 193.976562 412.347656 C 193.964844 412.300781 193.949219 412.257812 193.925781 412.214844 C 193.902344 412.136719 193.882812 412.054688 193.867188 411.972656 C 193.847656 411.894531 193.867188 412.113281 193.867188 411.972656 C 193.867188 411.925781 193.867188 411.878906 193.867188 411.828125 C 193.867188 411.78125 193.867188 411.757812 193.867188 411.722656 C 193.867188 411.6875 193.890625 411.511719 193.867188 411.695312 C 193.90625 411.539062 193.882812 411.390625 193.804688 411.25 C 193.726562 411.113281 193.609375 411.023438 193.453125 410.980469 C 193.300781 410.941406 193.15625 410.964844 193.019531 411.042969 C 192.886719 411.121094 192.792969 411.234375 192.75 411.386719 Z M 192.726562 411.382812" fill="#000f66"/><path fill-rule="nonzero" fill-opacity="1" d="M 180.753906 396.589844 L 180.867188 396.589844 C 180.957031 396.589844 180.726562 396.570312 180.867188 396.589844 L 181.074219 396.628906 C 181.214844 396.65625 181.351562 396.695312 181.488281 396.742188 L 181.722656 396.847656 C 181.824219 396.886719 181.667969 396.820312 181.722656 396.847656 L 181.824219 396.894531 C 181.957031 396.957031 182.082031 397.027344 182.207031 397.105469 C 182.261719 397.140625 182.320312 397.175781 182.378906 397.21875 L 182.46875 397.28125 C 182.492188 397.28125 182.574219 397.367188 182.46875 397.28125 C 182.578125 397.375 182.6875 397.46875 182.789062 397.570312 C 182.890625 397.671875 182.988281 397.777344 183.078125 397.890625 C 183.148438 397.972656 183.046875 397.839844 183.078125 397.890625 L 183.144531 397.984375 C 183.1875 398.042969 183.226562 398.113281 183.269531 398.175781 C 183.351562 398.3125 183.46875 398.402344 183.621094 398.441406 C 183.777344 398.484375 183.921875 398.464844 184.0625 398.382812 C 184.199219 398.300781 184.289062 398.183594 184.328125 398.03125 C 184.371094 397.875 184.351562 397.726562 184.269531 397.589844 C 183.886719 396.972656 183.386719 396.472656 182.765625 396.089844 C 182.144531 395.710938 181.472656 395.492188 180.75 395.429688 C 180.589844 395.433594 180.453125 395.488281 180.339844 395.601562 C 180.226562 395.714844 180.167969 395.847656 180.167969 396.007812 C 180.171875 396.167969 180.230469 396.300781 180.34375 396.414062 C 180.453125 396.527344 180.589844 396.585938 180.75 396.589844 Z M 180.753906 396.589844" fill="#000f66"/><path fill-rule="nonzero" fill-opacity="1" d="M 193.460938 400.144531 C 194.730469 399.449219 196.082031 399.214844 197.511719 399.441406 C 197.664062 399.472656 197.804688 399.453125 197.941406 399.375 C 198.078125 399.296875 198.167969 399.183594 198.214844 399.035156 C 198.25 398.882812 198.230469 398.738281 198.152344 398.601562 C 198.074219 398.464844 197.957031 398.375 197.804688 398.332031 C 196.070312 398.035156 194.425781 398.308594 192.878906 399.148438 C 192.222656 399.5 192.804688 400.507812 193.464844 400.148438 Z M 193.460938 400.144531" fill="#000f66"/><path fill-rule="nonzero" fill-opacity="1" d="M 155.707031 397.367188 C 154.605469 400.933594 155.046875 405.179688 157.539062 408.074219 C 160.316406 411.300781 165.152344 411.789062 168.902344 410.136719 C 172.460938 408.558594 175.125 405.078125 175.238281 401.128906 C 175.386719 397.390625 173.335938 393.675781 169.925781 392.042969 C 166.515625 390.40625 161.503906 390.230469 158.871094 393.359375 C 158.390625 393.925781 159.222656 394.769531 159.691406 394.179688 C 161.765625 391.714844 165.53125 391.691406 168.359375 392.652344 C 169.128906 392.914062 169.84375 393.28125 170.507812 393.75 C 171.171875 394.222656 171.753906 394.773438 172.257812 395.414062 C 172.765625 396.050781 173.167969 396.746094 173.472656 397.5 C 173.777344 398.253906 173.96875 399.035156 174.046875 399.84375 C 174.421875 403.367188 172.550781 406.667969 169.554688 408.488281 C 166.453125 410.367188 162.078125 410.546875 159.210938 408.097656 C 156.269531 405.585938 155.730469 401.207031 156.824219 397.675781 C 157.046875 396.96875 155.925781 396.652344 155.707031 397.367188 Z M 155.707031 397.367188" fill="#000f66"/><path fill-rule="nonzero" fill-opacity="1" d="M 173.566406 388.371094 C 172.207031 387.34375 170.699219 386.621094 169.050781 386.195312 C 167.640625 385.875 166.222656 385.808594 164.792969 386 C 162.371094 386.257812 160.152344 387.066406 158.136719 388.425781 C 155.710938 390.09375 153.824219 392.410156 152.308594 394.90625 C 150.570312 397.765625 150.117188 401.21875 150.632812 404.496094 C 151.101562 407.472656 152.394531 410.4375 154.574219 412.546875 C 156.546875 414.449219 159.148438 415.574219 161.816406 416.070312 C 164.8125 416.605469 167.96875 416.5625 170.792969 415.339844 C 172.214844 414.707031 173.457031 413.820312 174.515625 412.683594 C 175.566406 411.617188 176.503906 410.460938 177.332031 409.21875 C 178.230469 407.75 178.875 406.175781 179.269531 404.5 C 179.664062 402.824219 179.785156 401.128906 179.636719 399.410156 C 179.503906 397.636719 179.074219 395.9375 178.34375 394.316406 C 177.613281 392.691406 176.628906 391.242188 175.386719 389.96875 C 174.816406 389.390625 174.207031 388.855469 173.554688 388.371094 C 172.957031 387.921875 172.378906 388.929688 172.96875 389.375 C 174.257812 390.34375 175.347656 391.503906 176.234375 392.851562 C 177.125 394.203125 177.757812 395.660156 178.140625 397.230469 C 178.527344 398.875 178.644531 400.539062 178.484375 402.222656 C 178.328125 403.90625 177.902344 405.519531 177.214844 407.0625 C 176.644531 408.277344 175.917969 409.386719 175.039062 410.398438 C 174.144531 411.53125 173.121094 412.523438 171.964844 413.382812 C 169.59375 414.988281 166.707031 415.414062 163.90625 415.183594 C 161.335938 414.976562 158.761719 414.261719 156.636719 412.761719 C 154.453125 411.230469 153.042969 408.917969 152.265625 406.394531 C 151.789062 404.898438 151.566406 403.367188 151.597656 401.800781 C 151.628906 400.230469 151.914062 398.707031 152.449219 397.234375 C 153.050781 395.804688 153.839844 394.488281 154.816406 393.28125 C 155.605469 392.222656 156.5 391.261719 157.496094 390.394531 C 161.09375 387.273438 166.585938 385.945312 170.984375 388.140625 C 171.6875 388.496094 172.351562 388.90625 172.976562 389.375 C 173.582031 389.820312 174.160156 388.8125 173.566406 388.371094 Z M 173.566406 388.371094" fill="#000f66"/><path fill-rule="nonzero" fill-opacity="1" d="M 153.757812 416.527344 L 155.636719 412.761719 C 155.710938 412.625 155.726562 412.480469 155.683594 412.328125 C 155.640625 412.179688 155.550781 412.0625 155.417969 411.984375 C 155.28125 411.90625 155.136719 411.886719 154.984375 411.921875 C 154.832031 411.960938 154.714844 412.046875 154.632812 412.179688 L 152.753906 415.941406 C 152.671875 416.078125 152.652344 416.226562 152.691406 416.382812 C 152.734375 416.535156 152.820312 416.65625 152.960938 416.734375 C 153.097656 416.816406 153.246094 416.835938 153.402344 416.796875 C 153.554688 416.757812 153.675781 416.667969 153.757812 416.527344 Z M 153.757812 416.527344" fill="#000f66"/><path fill-rule="nonzero" fill-opacity="1" d="M 159.511719 418.761719 L 161.136719 415.695312 C 161.230469 415.554688 161.257812 415.40625 161.222656 415.242188 C 161.183594 415.078125 161.09375 414.953125 160.949219 414.871094 C 160.804688 414.785156 160.652344 414.765625 160.492188 414.8125 C 160.332031 414.859375 160.214844 414.957031 160.140625 415.105469 L 158.511719 418.175781 C 158.417969 418.3125 158.390625 418.464844 158.429688 418.625 C 158.464844 418.789062 158.558594 418.914062 158.699219 418.996094 C 158.84375 419.082031 158.996094 419.101562 159.15625 419.054688 C 159.316406 419.007812 159.4375 418.910156 159.511719 418.761719 Z M 159.511719 418.761719" fill="#000f66"/><path fill-rule="nonzero" fill-opacity="1" d="M 182.195312 399.453125 C 182.390625 399.5 182.558594 399.617188 182.703125 399.808594 C 182.84375 400 182.953125 400.25 183.023438 400.558594 C 183.097656 400.867188 183.125 401.210938 183.117188 401.585938 C 183.105469 401.964844 183.054688 402.347656 182.960938 402.738281 C 182.867188 403.125 182.742188 403.492188 182.582031 403.835938 C 182.425781 404.175781 182.242188 404.46875 182.042969 404.714844 C 181.839844 404.957031 181.632812 405.132812 181.417969 405.238281 C 181.203125 405.34375 181 405.375 180.804688 405.328125 C 180.613281 405.285156 180.445312 405.164062 180.300781 404.972656 C 180.15625 404.78125 180.050781 404.53125 179.976562 404.222656 C 179.90625 403.917969 179.875 403.574219 179.886719 403.195312 C 179.898438 402.820312 179.949219 402.433594 180.042969 402.046875 C 180.132812 401.65625 180.257812 401.289062 180.417969 400.949219 C 180.578125 400.605469 180.757812 400.3125 180.960938 400.070312 C 181.164062 399.828125 181.371094 399.652344 181.585938 399.546875 C 181.800781 399.4375 182.003906 399.40625 182.195312 399.453125 Z M 182.195312 399.453125" fill="#000f66"/><path fill-rule="nonzero" fill-opacity="1" d="M 192.464844 405.902344 C 193.3125 405.480469 194.210938 405.273438 195.160156 405.277344 C 195.609375 405.292969 196.050781 405.34375 196.492188 405.433594 C 196.914062 405.539062 197.328125 405.511719 197.734375 405.359375 C 197.957031 405.257812 198.125 405.097656 198.238281 404.878906 C 198.351562 404.660156 198.382812 404.429688 198.332031 404.1875 C 198.277344 403.941406 198.160156 403.726562 197.984375 403.542969 C 197.808594 403.359375 197.59375 403.238281 197.347656 403.175781 C 196.882812 403.066406 196.414062 403.046875 195.941406 403.113281 C 195.453125 403.15625 194.972656 403.242188 194.5 403.378906 C 193.453125 403.6875 192.511719 404.199219 191.683594 404.910156 C 191.570312 405.023438 191.515625 405.160156 191.515625 405.320312 C 191.515625 405.480469 191.570312 405.617188 191.683594 405.730469 C 191.796875 405.839844 191.933594 405.894531 192.09375 405.894531 C 192.253906 405.894531 192.390625 405.839844 192.503906 405.730469 C 193.253906 405.101562 194.101562 404.671875 195.050781 404.433594 C 195.484375 404.324219 195.925781 404.261719 196.371094 404.25 C 196.605469 404.222656 196.832031 404.238281 197.058594 404.289062 C 197.1875 404.335938 197.226562 404.492188 197.238281 404.328125 L 197.28125 404.296875 L 197.25 404.296875 C 197.1875 404.304688 197.128906 404.304688 197.066406 404.296875 C 196.894531 404.289062 196.722656 404.265625 196.550781 404.222656 C 196.050781 404.121094 195.542969 404.074219 195.03125 404.078125 C 193.925781 404.105469 192.882812 404.367188 191.898438 404.863281 C 191.757812 404.945312 191.667969 405.0625 191.628906 405.21875 C 191.589844 405.375 191.609375 405.523438 191.691406 405.660156 C 191.769531 405.800781 191.890625 405.890625 192.046875 405.929688 C 192.199219 405.972656 192.347656 405.949219 192.484375 405.867188 Z M 192.464844 405.902344" fill="#000f66"/><path fill-rule="nonzero" fill-opacity="1" d="M 173.050781 388.304688 C 172.773438 387.574219 172.597656 386.824219 172.53125 386.042969 C 172.464844 385.265625 172.507812 384.496094 172.660156 383.726562 C 172.8125 382.960938 173.066406 382.234375 173.425781 381.539062 C 173.785156 380.847656 174.234375 380.21875 174.773438 379.652344 C 177.589844 376.734375 181.464844 377.121094 181.933594 377.1875 C 183.070312 377.320312 184.136719 377.664062 185.132812 378.222656 C 185.65625 376.789062 186.433594 375.507812 187.457031 374.378906 C 188.164062 373.601562 190.5625 371.054688 194.5 370.707031 C 195.65625 370.613281 196.800781 370.707031 197.925781 370.988281 C 199.054688 371.265625 200.109375 371.71875 201.085938 372.347656 C 202.1875 373.0625 203.128906 373.945312 203.914062 374.996094 C 204.703125 376.046875 205.285156 377.199219 205.664062 378.457031 C 207.007812 377.601562 208.46875 377.066406 210.050781 376.859375 C 210.875 376.753906 215.132812 376.210938 217.917969 379.144531 C 219.054688 380.394531 219.738281 381.851562 219.976562 383.523438 C 220.285156 385.046875 220.15625 386.535156 219.589844 387.984375 C 219.226562 388.882812 218.707031 389.679688 218.03125 390.375 C 218.984375 390.824219 219.824219 391.421875 220.558594 392.175781 C 221.160156 392.777344 221.652344 393.453125 222.046875 394.203125 C 222.4375 394.957031 222.707031 395.75 222.851562 396.582031 C 223 397.417969 223.019531 398.257812 222.910156 399.097656 C 222.800781 399.9375 222.566406 400.742188 222.207031 401.511719 C 221.570312 402.917969 220.625 404.074219 219.371094 404.972656 C 218.734375 403.203125 217.617188 401.824219 216.015625 400.84375 C 214.941406 400.15625 213.769531 399.820312 212.492188 399.835938 C 209.5625 399.933594 207.765625 402.300781 207.496094 402.671875 C 206.578125 403.101562 205.617188 403.273438 204.609375 403.1875 C 203.820312 403.097656 203.082031 402.863281 202.394531 402.476562 C 201.703125 402.09375 201.113281 401.589844 200.621094 400.96875 C 198.675781 398.398438 199.902344 395.277344 199.960938 395.128906 C 199.378906 395.632812 198.738281 396.042969 198.03125 396.351562 C 197.328125 396.660156 196.59375 396.855469 195.828125 396.9375 C 195.0625 397.019531 194.300781 396.984375 193.546875 396.832031 C 192.792969 396.679688 192.078125 396.417969 191.40625 396.042969 C 188.261719 394.28125 187.75 390.828125 187.699219 390.40625 C 186.910156 391.390625 185.957031 392.171875 184.835938 392.746094 C 181.296875 394.542969 177.710938 393.222656 176.992188 392.941406 C 176.425781 392.144531 175.777344 391.304688 175.039062 390.441406 C 174.367188 389.648438 173.695312 388.941406 173.050781 388.304688 Z M 173.050781 388.304688" fill="#000f66"/><path fill-rule="nonzero" fill-opacity="1" d="M 205.988281 412.613281 C 206.667969 413.023438 207.386719 413.355469 208.140625 413.605469 C 209.441406 414.039062 210.78125 414.21875 212.152344 414.144531 C 209.335938 416.960938 206.519531 419.789062 203.703125 422.625 C 203.683594 421.214844 203.507812 419.128906 203.492188 417.714844 C 204.457031 416.578125 205.179688 415.308594 205.664062 413.898438 C 205.882812 413.125 205.929688 413.222656 205.988281 412.613281 Z M 205.988281 412.613281" fill="#000f66"/><path fill-rule="nonzero" fill-opacity="1" d="M 164.070312 407.515625 C 164.59375 407.574219 165.113281 407.574219 165.632812 407.515625 C 166.152344 407.457031 166.660156 407.34375 167.15625 407.171875 C 167.652344 407 168.121094 406.773438 168.566406 406.496094 C 169.011719 406.21875 169.417969 405.894531 169.789062 405.527344 C 170.160156 405.15625 170.488281 404.75 170.769531 404.308594 C 171.050781 403.863281 171.277344 403.394531 171.453125 402.902344 C 171.628906 402.40625 171.746094 401.902344 171.808594 401.378906 C 171.871094 400.859375 171.871094 400.339844 171.816406 399.816406 C 171.8125 399.660156 171.753906 399.523438 171.640625 399.410156 C 171.527344 399.300781 171.394531 399.242188 171.234375 399.234375 C 171.074219 399.238281 170.9375 399.292969 170.824219 399.40625 C 170.710938 399.519531 170.65625 399.65625 170.65625 399.816406 C 170.710938 400.261719 170.714844 400.707031 170.667969 401.152344 C 170.621094 401.597656 170.527344 402.035156 170.378906 402.457031 C 170.234375 402.882812 170.042969 403.285156 169.804688 403.664062 C 169.566406 404.042969 169.289062 404.390625 168.96875 404.707031 C 168.652344 405.023438 168.300781 405.300781 167.921875 405.535156 C 167.539062 405.769531 167.136719 405.960938 166.710938 406.101562 C 166.289062 406.246094 165.851562 406.339844 165.40625 406.382812 C 164.960938 406.425781 164.515625 406.417969 164.070312 406.359375 C 163.910156 406.359375 163.773438 406.417969 163.660156 406.53125 C 163.546875 406.644531 163.492188 406.78125 163.492188 406.941406 C 163.492188 407.097656 163.550781 407.234375 163.664062 407.347656 C 163.777344 407.460938 163.914062 407.515625 164.070312 407.519531 Z M 164.070312 407.515625" fill="#ffffff"/><path fill-rule="nonzero" fill-opacity="1" d="M 121.667969 393.28125 C 121.667969 392.683594 126.835938 393.464844 130.605469 390.339844 C 131.78125 389.3125 132.722656 388.09375 133.421875 386.695312 C 134.613281 384.496094 135.238281 382.148438 135.300781 379.648438 C 135.421875 382.117188 136.089844 384.433594 137.300781 386.589844 C 138.261719 388.441406 139.59375 389.96875 141.296875 391.167969 C 143.464844 392.625 145.855469 393.328125 148.46875 393.28125 C 145.875 393.515625 143.484375 394.339844 141.296875 395.746094 C 139.753906 396.695312 138.460938 397.910156 137.421875 399.394531 C 135.152344 402.714844 135.203125 406.292969 135.3125 407.742188 C 135.277344 405.125 134.652344 402.660156 133.429688 400.34375 C 132.757812 398.960938 131.855469 397.746094 130.726562 396.699219 C 126.949219 393.347656 121.65625 393.886719 121.667969 393.28125 Z M 121.667969 393.28125" fill="#ffffff"/><path fill-rule="nonzero" fill-opacity="1" d="M 150.121094 392.816406 C 148.167969 393.121094 146.207031 393.441406 144.292969 393.9375 C 142.890625 394.265625 141.558594 394.785156 140.304688 395.496094 C 137.980469 396.902344 136.78125 399.226562 136.039062 401.765625 C 135.476562 403.878906 135.050781 406.023438 134.753906 408.191406 L 135.875 408.191406 C 135.566406 406.238281 135.25 404.277344 134.75 402.359375 C 134.421875 400.957031 133.902344 399.625 133.195312 398.367188 C 131.789062 396.042969 129.46875 394.847656 126.929688 394.097656 C 124.816406 393.539062 122.675781 393.109375 120.507812 392.816406 L 120.507812 393.9375 C 122.460938 393.628906 124.421875 393.3125 126.335938 392.8125 C 127.738281 392.484375 129.066406 391.964844 130.324219 391.257812 C 132.648438 389.847656 133.863281 387.527344 134.589844 384.984375 C 135.152344 382.871094 135.582031 380.730469 135.875 378.558594 L 134.753906 378.558594 C 135.058594 380.515625 135.378906 382.472656 135.875 384.390625 C 136.203125 385.800781 136.722656 387.132812 137.433594 388.390625 C 138.84375 390.71875 141.164062 391.914062 143.699219 392.660156 C 145.8125 393.222656 147.953125 393.652344 150.121094 393.949219 C 150.851562 394.058594 151.179688 392.941406 150.429688 392.828125 C 148.507812 392.527344 146.582031 392.210938 144.699219 391.726562 C 143.382812 391.433594 142.132812 390.964844 140.953125 390.320312 C 138.839844 389.066406 137.78125 386.917969 137.121094 384.570312 C 136.582031 382.496094 136.164062 380.402344 135.875 378.277344 C 135.785156 377.726562 134.839844 377.726562 134.753906 378.277344 C 134.457031 380.203125 134.140625 382.128906 133.65625 384.015625 C 133.363281 385.332031 132.894531 386.582031 132.25 387.761719 C 130.996094 389.875 128.851562 390.933594 126.507812 391.597656 C 124.433594 392.136719 122.335938 392.554688 120.214844 392.84375 C 119.664062 392.929688 119.664062 393.878906 120.214844 393.964844 C 122.136719 394.265625 124.066406 394.578125 125.949219 395.0625 C 127.265625 395.359375 128.511719 395.839844 129.691406 396.492188 C 131.804688 397.742188 132.859375 399.890625 133.527344 402.238281 C 134.066406 404.308594 134.484375 406.40625 134.773438 408.527344 C 134.855469 409.082031 135.804688 409.085938 135.890625 408.527344 C 136.191406 406.605469 136.503906 404.679688 136.992188 402.789062 C 137.285156 401.476562 137.753906 400.226562 138.398438 399.046875 C 139.652344 396.929688 141.796875 395.875 144.140625 395.207031 C 146.210938 394.671875 148.308594 394.257812 150.429688 393.964844 C 151.164062 393.820312 150.855469 392.699219 150.121094 392.816406 Z M 150.121094 392.816406" fill="#000f66"/><path fill-rule="nonzero" fill-opacity="1" d="M 249.285156 420.292969 C 249.285156 420.710938 249.242188 421.125 249.164062 421.535156 C 249.082031 421.945312 248.960938 422.339844 248.800781 422.726562 C 248.640625 423.113281 248.445312 423.480469 248.214844 423.824219 C 247.980469 424.171875 247.71875 424.492188 247.425781 424.789062 C 247.128906 425.082031 246.808594 425.347656 246.460938 425.578125 C 246.113281 425.8125 245.75 426.007812 245.363281 426.167969 C 244.976562 426.324219 244.582031 426.445312 244.171875 426.527344 C 243.761719 426.609375 243.351562 426.648438 242.933594 426.648438 C 242.515625 426.648438 242.101562 426.609375 241.695312 426.527344 C 241.285156 426.445312 240.886719 426.324219 240.503906 426.167969 C 240.117188 426.007812 239.75 425.8125 239.40625 425.578125 C 239.058594 425.347656 238.738281 425.082031 238.441406 424.789062 C 238.148438 424.492188 237.882812 424.171875 237.652344 423.824219 C 237.421875 423.480469 237.226562 423.113281 237.066406 422.726562 C 236.90625 422.339844 236.785156 421.945312 236.703125 421.535156 C 236.621094 421.125 236.582031 420.710938 236.582031 420.292969 C 236.582031 419.878906 236.621094 419.464844 236.703125 419.054688 C 236.785156 418.644531 236.90625 418.25 237.066406 417.863281 C 237.226562 417.476562 237.421875 417.109375 237.652344 416.765625 C 237.882812 416.417969 238.148438 416.097656 238.441406 415.800781 C 238.738281 415.507812 239.058594 415.242188 239.40625 415.011719 C 239.75 414.777344 240.117188 414.582031 240.503906 414.421875 C 240.886719 414.265625 241.285156 414.144531 241.695312 414.0625 C 242.101562 413.980469 242.515625 413.941406 242.933594 413.941406 C 243.351562 413.941406 243.761719 413.980469 244.171875 414.0625 C 244.582031 414.144531 244.976562 414.265625 245.363281 414.421875 C 245.75 414.582031 246.113281 414.777344 246.460938 415.011719 C 246.808594 415.242188 247.128906 415.507812 247.425781 415.800781 C 247.71875 416.097656 247.980469 416.417969 248.214844 416.765625 C 248.445312 417.109375 248.640625 417.476562 248.800781 417.863281 C 248.960938 418.25 249.082031 418.644531 249.164062 419.054688 C 249.242188 419.464844 249.285156 419.878906 249.285156 420.292969 Z M 249.285156 420.292969" fill="#ffffff"/><path fill-rule="nonzero" fill-opacity="1" d="M 248.703125 420.292969 C 248.703125 420.691406 248.664062 421.082031 248.582031 421.46875 C 248.503906 421.851562 248.386719 422.226562 248.230469 422.589844 C 248.070312 422.953125 247.878906 423.296875 247.652344 423.617188 C 247.425781 423.941406 247.167969 424.238281 246.882812 424.507812 C 246.59375 424.777344 246.28125 425.015625 245.945312 425.222656 C 245.609375 425.429688 245.253906 425.597656 244.882812 425.730469 C 244.511719 425.863281 244.132812 425.957031 243.742188 426.015625 C 243.351562 426.070312 242.957031 426.085938 242.5625 426.058594 C 242.171875 426.035156 241.785156 425.96875 241.402344 425.863281 C 241.023438 425.757812 240.65625 425.617188 240.304688 425.4375 C 239.953125 425.257812 239.625 425.042969 239.316406 424.796875 C 239.011719 424.550781 238.730469 424.273438 238.480469 423.96875 C 238.230469 423.664062 238.011719 423.335938 237.828125 422.988281 C 237.644531 422.640625 237.496094 422.273438 237.386719 421.894531 C 237.277344 421.515625 237.210938 421.128906 237.179688 420.734375 C 237.148438 420.34375 237.160156 419.949219 237.210938 419.558594 C 237.261719 419.167969 237.351562 418.785156 237.480469 418.410156 C 237.609375 418.039062 237.773438 417.683594 237.976562 417.34375 C 238.175781 417.003906 238.410156 416.6875 238.679688 416.398438 C 238.945312 416.105469 239.238281 415.84375 239.558594 415.613281 C 239.878906 415.382812 240.21875 415.1875 240.578125 415.027344 C 240.9375 414.863281 241.3125 414.742188 241.695312 414.65625 C 242.082031 414.574219 242.472656 414.527344 242.867188 414.523438 C 243.261719 414.519531 243.652344 414.554688 244.039062 414.628906 C 244.691406 414.761719 245.304688 415.003906 245.878906 415.347656 C 246.449219 415.691406 246.949219 416.121094 247.371094 416.636719 C 247.796875 417.152344 248.121094 417.722656 248.351562 418.351562 C 248.578125 418.980469 248.695312 419.628906 248.699219 420.292969 C 248.699219 421.042969 249.867188 421.046875 249.863281 420.292969 C 249.863281 419.820312 249.8125 419.351562 249.71875 418.886719 C 249.621094 418.421875 249.476562 417.972656 249.289062 417.535156 C 249.101562 417.101562 248.871094 416.6875 248.597656 416.300781 C 248.324219 415.914062 248.015625 415.554688 247.667969 415.230469 C 247.320312 414.90625 246.945312 414.621094 246.542969 414.375 C 246.136719 414.128906 245.710938 413.921875 245.265625 413.765625 C 244.816406 413.605469 244.359375 413.492188 243.890625 413.425781 C 243.421875 413.359375 242.949219 413.34375 242.476562 413.375 C 242.003906 413.40625 241.535156 413.484375 241.078125 413.609375 C 240.621094 413.738281 240.183594 413.910156 239.761719 414.125 C 239.339844 414.34375 238.945312 414.601562 238.574219 414.898438 C 238.207031 415.195312 237.871094 415.527344 237.570312 415.894531 C 237.269531 416.261719 237.007812 416.65625 236.789062 417.078125 C 236.570312 417.496094 236.394531 417.9375 236.261719 418.390625 C 236.132812 418.847656 236.050781 419.3125 236.015625 419.785156 C 235.980469 420.261719 235.996094 420.730469 236.058594 421.203125 C 236.121094 421.671875 236.226562 422.132812 236.382812 422.582031 C 236.539062 423.027344 236.742188 423.457031 236.984375 423.863281 C 237.230469 424.269531 237.511719 424.648438 237.832031 424.996094 C 238.15625 425.347656 238.507812 425.660156 238.894531 425.933594 C 239.28125 426.210938 239.6875 426.445312 240.121094 426.636719 C 240.558594 426.828125 241.003906 426.976562 241.46875 427.074219 C 241.933594 427.175781 242.402344 427.226562 242.875 427.230469 C 243.351562 427.234375 243.820312 427.191406 244.285156 427.097656 C 245.066406 426.929688 245.796875 426.640625 246.480469 426.226562 C 247.164062 425.808594 247.757812 425.292969 248.265625 424.675781 C 248.773438 424.054688 249.160156 423.371094 249.4375 422.621094 C 249.710938 421.871094 249.851562 421.09375 249.863281 420.292969 C 249.871094 419.546875 248.710938 419.546875 248.703125 420.292969 Z M 248.703125 420.292969" fill="#000f66"/><path fill-rule="nonzero" fill-opacity="1" d="M 272.15625 432.925781 L 258.402344 446.9375 C 258.242188 447.101562 258.105469 447.285156 257.992188 447.484375 C 257.878906 447.683594 257.792969 447.898438 257.734375 448.121094 C 257.679688 448.34375 257.648438 448.570312 257.652344 448.800781 C 257.652344 449.03125 257.6875 449.257812 257.746094 449.476562 C 257.808594 449.699219 257.898438 449.910156 258.015625 450.109375 C 258.132812 450.304688 258.273438 450.488281 258.4375 450.648438 C 258.601562 450.808594 258.78125 450.945312 258.984375 451.058594 C 259.183594 451.171875 259.394531 451.257812 259.617188 451.316406 L 278.628906 456.226562 C 278.851562 456.285156 279.078125 456.3125 279.304688 456.308594 C 279.535156 456.304688 279.761719 456.273438 279.980469 456.210938 C 280.203125 456.148438 280.410156 456.058594 280.609375 455.941406 C 280.804688 455.824219 280.984375 455.683594 281.144531 455.519531 C 281.304688 455.355469 281.441406 455.175781 281.554688 454.972656 C 281.667969 454.773438 281.753906 454.5625 281.808594 454.339844 C 281.867188 454.117188 281.894531 453.890625 281.890625 453.664062 C 281.890625 453.433594 281.859375 453.207031 281.796875 452.988281 L 276.546875 434.0625 C 276.484375 433.839844 276.398438 433.632812 276.28125 433.433594 C 276.164062 433.234375 276.023438 433.054688 275.859375 432.894531 C 275.695312 432.734375 275.511719 432.597656 275.3125 432.484375 C 275.113281 432.371094 274.898438 432.285156 274.679688 432.230469 C 274.457031 432.171875 274.230469 432.144531 274 432.144531 C 273.769531 432.148438 273.542969 432.179688 273.324219 432.242188 C 273.101562 432.300781 272.890625 432.390625 272.695312 432.507812 C 272.496094 432.625 272.316406 432.765625 272.15625 432.925781 Z M 272.15625 432.925781" fill="#fad745"/><path fill-rule="nonzero" fill-opacity="1" d="M 271.746094 432.515625 L 267.945312 436.390625 L 261.105469 443.347656 L 258.683594 445.8125 C 258.121094 446.386719 257.535156 446.921875 257.25 447.707031 C 257.105469 448.132812 257.050781 448.566406 257.089844 449.015625 C 257.128906 449.460938 257.253906 449.882812 257.464844 450.277344 C 257.679688 450.671875 257.960938 451.007812 258.3125 451.289062 C 258.664062 451.566406 259.058594 451.761719 259.492188 451.875 C 260.105469 452.046875 260.730469 452.199219 261.347656 452.355469 L 270.128906 454.621094 L 277.789062 456.601562 C 278.816406 456.863281 279.800781 457.03125 280.800781 456.496094 C 282.246094 455.71875 282.710938 454.09375 282.296875 452.585938 L 280.425781 445.84375 L 277.890625 436.683594 L 277.183594 434.148438 C 276.832031 432.859375 275.949219 431.8125 274.570312 431.582031 C 274.054688 431.496094 273.550781 431.535156 273.050781 431.695312 C 272.554688 431.855469 272.121094 432.117188 271.753906 432.488281 C 271.21875 433.007812 272.039062 433.828125 272.574219 433.308594 C 272.703125 433.179688 272.84375 433.074219 273 432.984375 C 273.15625 432.894531 273.324219 432.828125 273.496094 432.78125 C 273.671875 432.738281 273.847656 432.714844 274.03125 432.714844 C 274.210938 432.714844 274.386719 432.738281 274.5625 432.785156 C 274.734375 432.832031 274.898438 432.902344 275.054688 432.992188 C 275.210938 433.082031 275.355469 433.191406 275.480469 433.320312 C 275.609375 433.449219 275.71875 433.589844 275.808594 433.746094 C 275.898438 433.902344 275.964844 434.066406 276.011719 434.242188 C 276.1875 434.851562 276.363281 435.460938 276.519531 436.070312 L 278.828125 444.394531 L 280.941406 452.046875 C 281.105469 452.632812 281.382812 453.320312 281.292969 453.9375 C 281.253906 454.191406 281.171875 454.429688 281.046875 454.652344 C 280.921875 454.875 280.757812 455.066406 280.558594 455.230469 C 280.363281 455.394531 280.140625 455.515625 279.898438 455.597656 C 279.65625 455.675781 279.40625 455.710938 279.148438 455.699219 C 278.921875 455.675781 278.699219 455.632812 278.480469 455.566406 L 272.039062 453.917969 L 263.117188 451.609375 L 260.316406 450.90625 C 259.476562 450.6875 258.683594 450.402344 258.355469 449.496094 C 258 448.496094 258.480469 447.703125 259.148438 447.03125 L 261.101562 445.039062 L 267.496094 438.527344 L 272.3125 433.617188 L 272.566406 433.359375 C 273.089844 432.804688 272.269531 431.980469 271.746094 432.515625 Z M 271.746094 432.515625" fill="#000f66"/></svg>